<mxfile host="app.diagrams.net" modified="2022-09-17T23:51:07.565Z" agent="5.0 (Windows NT 10.0; Win64; x64) AppleWebKit/537.36 (KHTML, like Gecko) Chrome/105.0.0.0 Safari/537.36" etag="nCz8_uHSYG27EqsGnkTi" version="20.3.0" type="github">
  <diagram id="LbL5Cy-zdxv4c51SbEt9" name="Page-1">
    <mxGraphModel dx="1182" dy="582" grid="1" gridSize="10" guides="1" tooltips="1" connect="1" arrows="1" fold="1" page="1" pageScale="1" pageWidth="850" pageHeight="1100" math="0" shadow="0">
      <root>
        <mxCell id="0" />
        <mxCell id="1" parent="0" />
        <mxCell id="2s2EVg3I9l29PKekEkhl-1" value="Computer&lt;br&gt;" style="rounded=1;whiteSpace=wrap;html=1;fillColor=#66FFFF;" vertex="1" parent="1">
          <mxGeometry x="365" y="140" width="120" height="60" as="geometry" />
        </mxCell>
        <mxCell id="2s2EVg3I9l29PKekEkhl-2" value="Warranty&lt;br&gt;" style="rounded=1;whiteSpace=wrap;html=1;fillColor=#66FFFF;" vertex="1" parent="1">
          <mxGeometry x="90" y="270" width="120" height="60" as="geometry" />
        </mxCell>
        <mxCell id="2s2EVg3I9l29PKekEkhl-3" value="Worker&lt;br&gt;" style="rounded=1;whiteSpace=wrap;html=1;fillColor=#66FFFF;" vertex="1" parent="1">
          <mxGeometry x="600" y="340" width="120" height="60" as="geometry" />
        </mxCell>
        <mxCell id="2s2EVg3I9l29PKekEkhl-4" value="Property of" style="shape=hexagon;perimeter=hexagonPerimeter2;whiteSpace=wrap;html=1;fixedSize=1;fillColor=#66FF66;" vertex="1" parent="1">
          <mxGeometry x="230" y="190" width="100" height="60" as="geometry" />
        </mxCell>
        <mxCell id="2s2EVg3I9l29PKekEkhl-5" value="" style="endArrow=none;html=1;rounded=0;" edge="1" parent="1">
          <mxGeometry width="50" height="50" relative="1" as="geometry">
            <mxPoint x="325" y="215" as="sourcePoint" />
            <mxPoint x="365" y="185" as="targetPoint" />
          </mxGeometry>
        </mxCell>
        <mxCell id="2s2EVg3I9l29PKekEkhl-6" value="" style="endArrow=none;html=1;rounded=0;" edge="1" parent="1">
          <mxGeometry width="50" height="50" relative="1" as="geometry">
            <mxPoint x="210" y="280" as="sourcePoint" />
            <mxPoint x="250" y="250" as="targetPoint" />
          </mxGeometry>
        </mxCell>
        <mxCell id="2s2EVg3I9l29PKekEkhl-7" value="Builds" style="shape=hexagon;perimeter=hexagonPerimeter2;whiteSpace=wrap;html=1;fixedSize=1;fillColor=#33FF33;" vertex="1" parent="1">
          <mxGeometry x="510" y="230" width="100" height="60" as="geometry" />
        </mxCell>
        <mxCell id="2s2EVg3I9l29PKekEkhl-8" value="" style="endArrow=none;html=1;rounded=0;exitX=1.017;exitY=0.65;exitDx=0;exitDy=0;exitPerimeter=0;" edge="1" parent="1" source="2s2EVg3I9l29PKekEkhl-1">
          <mxGeometry width="50" height="50" relative="1" as="geometry">
            <mxPoint x="480" y="170" as="sourcePoint" />
            <mxPoint x="565" y="230" as="targetPoint" />
          </mxGeometry>
        </mxCell>
        <mxCell id="2s2EVg3I9l29PKekEkhl-9" value="" style="endArrow=none;html=1;rounded=0;entryX=0.625;entryY=0;entryDx=0;entryDy=0;" edge="1" parent="1" target="2s2EVg3I9l29PKekEkhl-7">
          <mxGeometry width="50" height="50" relative="1" as="geometry">
            <mxPoint x="485" y="170" as="sourcePoint" />
            <mxPoint x="565" y="220" as="targetPoint" />
          </mxGeometry>
        </mxCell>
        <mxCell id="2s2EVg3I9l29PKekEkhl-10" value="" style="endArrow=none;html=1;rounded=0;exitX=1.017;exitY=0.65;exitDx=0;exitDy=0;exitPerimeter=0;" edge="1" parent="1">
          <mxGeometry width="50" height="50" relative="1" as="geometry">
            <mxPoint x="580" y="290" as="sourcePoint" />
            <mxPoint x="657.96" y="341" as="targetPoint" />
          </mxGeometry>
        </mxCell>
        <mxCell id="2s2EVg3I9l29PKekEkhl-11" value="" style="endArrow=none;html=1;rounded=0;exitX=1.017;exitY=0.65;exitDx=0;exitDy=0;exitPerimeter=0;" edge="1" parent="1">
          <mxGeometry width="50" height="50" relative="1" as="geometry">
            <mxPoint x="570" y="290" as="sourcePoint" />
            <mxPoint x="647.96" y="341" as="targetPoint" />
          </mxGeometry>
        </mxCell>
        <mxCell id="2s2EVg3I9l29PKekEkhl-12" value="" style="endArrow=none;html=1;rounded=0;" edge="1" parent="1">
          <mxGeometry width="50" height="50" relative="1" as="geometry">
            <mxPoint x="325" y="210" as="sourcePoint" />
            <mxPoint x="365" y="180" as="targetPoint" />
          </mxGeometry>
        </mxCell>
        <mxCell id="2s2EVg3I9l29PKekEkhl-15" value="&lt;u&gt;Policy_ID&lt;/u&gt;" style="ellipse;whiteSpace=wrap;html=1;fillColor=#FF9999;" vertex="1" parent="1">
          <mxGeometry x="10" y="370" width="80" height="70" as="geometry" />
        </mxCell>
        <mxCell id="2s2EVg3I9l29PKekEkhl-16" value="name" style="ellipse;whiteSpace=wrap;html=1;fillColor=#FF9999;" vertex="1" parent="1">
          <mxGeometry x="100" y="420" width="80" height="70" as="geometry" />
        </mxCell>
        <mxCell id="2s2EVg3I9l29PKekEkhl-17" value="Coverage time" style="ellipse;whiteSpace=wrap;html=1;fillColor=#FF9999;" vertex="1" parent="1">
          <mxGeometry x="200" y="370" width="80" height="70" as="geometry" />
        </mxCell>
        <mxCell id="2s2EVg3I9l29PKekEkhl-18" value="" style="endArrow=none;html=1;rounded=0;exitX=1;exitY=0;exitDx=0;exitDy=0;" edge="1" parent="1" source="2s2EVg3I9l29PKekEkhl-15">
          <mxGeometry width="50" height="50" relative="1" as="geometry">
            <mxPoint x="70" y="380" as="sourcePoint" />
            <mxPoint x="120" y="330" as="targetPoint" />
          </mxGeometry>
        </mxCell>
        <mxCell id="2s2EVg3I9l29PKekEkhl-19" value="" style="endArrow=none;html=1;rounded=0;" edge="1" parent="1" source="2s2EVg3I9l29PKekEkhl-16">
          <mxGeometry width="50" height="50" relative="1" as="geometry">
            <mxPoint x="100" y="380" as="sourcePoint" />
            <mxPoint x="150" y="330" as="targetPoint" />
          </mxGeometry>
        </mxCell>
        <mxCell id="2s2EVg3I9l29PKekEkhl-20" value="" style="endArrow=none;html=1;rounded=0;" edge="1" parent="1" source="2s2EVg3I9l29PKekEkhl-17">
          <mxGeometry width="50" height="50" relative="1" as="geometry">
            <mxPoint x="150.0042712474619" y="380.25126265847075" as="sourcePoint" />
            <mxPoint x="191.72" y="330" as="targetPoint" />
          </mxGeometry>
        </mxCell>
        <mxCell id="2s2EVg3I9l29PKekEkhl-21" value="cpu_speed" style="ellipse;whiteSpace=wrap;html=1;fillColor=#FF9999;" vertex="1" parent="1">
          <mxGeometry x="230" y="20" width="120" height="80" as="geometry" />
        </mxCell>
        <mxCell id="2s2EVg3I9l29PKekEkhl-24" value="memory_size" style="ellipse;whiteSpace=wrap;html=1;fillColor=#FF9999;" vertex="1" parent="1">
          <mxGeometry x="380" y="20" width="120" height="80" as="geometry" />
        </mxCell>
        <mxCell id="2s2EVg3I9l29PKekEkhl-25" value="price" style="ellipse;whiteSpace=wrap;html=1;fillColor=#FF9999;" vertex="1" parent="1">
          <mxGeometry x="530" y="20" width="120" height="80" as="geometry" />
        </mxCell>
        <mxCell id="2s2EVg3I9l29PKekEkhl-28" value="" style="endArrow=none;html=1;rounded=0;exitX=0.25;exitY=0;exitDx=0;exitDy=0;" edge="1" parent="1" source="2s2EVg3I9l29PKekEkhl-1">
          <mxGeometry width="50" height="50" relative="1" as="geometry">
            <mxPoint x="358.7358652427263" y="134.46228944175982" as="sourcePoint" />
            <mxPoint x="330" y="90" as="targetPoint" />
          </mxGeometry>
        </mxCell>
        <mxCell id="2s2EVg3I9l29PKekEkhl-29" value="" style="endArrow=none;html=1;rounded=0;" edge="1" parent="1" source="2s2EVg3I9l29PKekEkhl-1">
          <mxGeometry width="50" height="50" relative="1" as="geometry">
            <mxPoint x="440" y="150" as="sourcePoint" />
            <mxPoint x="445" y="100" as="targetPoint" />
          </mxGeometry>
        </mxCell>
        <mxCell id="2s2EVg3I9l29PKekEkhl-30" value="" style="endArrow=none;html=1;rounded=0;entryX=0;entryY=1;entryDx=0;entryDy=0;" edge="1" parent="1" source="2s2EVg3I9l29PKekEkhl-1" target="2s2EVg3I9l29PKekEkhl-25">
          <mxGeometry width="50" height="50" relative="1" as="geometry">
            <mxPoint x="592.5" y="150" as="sourcePoint" />
            <mxPoint x="527.5" y="100" as="targetPoint" />
          </mxGeometry>
        </mxCell>
        <mxCell id="2s2EVg3I9l29PKekEkhl-31" value="name" style="ellipse;whiteSpace=wrap;html=1;fillColor=#FF9999;" vertex="1" parent="1">
          <mxGeometry x="545" y="425" width="90" height="60" as="geometry" />
        </mxCell>
        <mxCell id="2s2EVg3I9l29PKekEkhl-32" value="First" style="ellipse;whiteSpace=wrap;html=1;fillColor=#FF9999;" vertex="1" parent="1">
          <mxGeometry x="510" y="510" width="65" height="50" as="geometry" />
        </mxCell>
        <mxCell id="2s2EVg3I9l29PKekEkhl-33" value="Last" style="ellipse;whiteSpace=wrap;html=1;fillColor=#FF9999;" vertex="1" parent="1">
          <mxGeometry x="600" y="510" width="60" height="50" as="geometry" />
        </mxCell>
        <mxCell id="2s2EVg3I9l29PKekEkhl-34" value="" style="endArrow=none;html=1;rounded=0;" edge="1" parent="1">
          <mxGeometry width="50" height="50" relative="1" as="geometry">
            <mxPoint x="610" y="430" as="sourcePoint" />
            <mxPoint x="635" y="400" as="targetPoint" />
          </mxGeometry>
        </mxCell>
        <mxCell id="2s2EVg3I9l29PKekEkhl-35" value="" style="endArrow=none;html=1;rounded=0;" edge="1" parent="1" target="2s2EVg3I9l29PKekEkhl-31">
          <mxGeometry width="50" height="50" relative="1" as="geometry">
            <mxPoint x="540" y="510" as="sourcePoint" />
            <mxPoint x="580" y="480" as="targetPoint" />
          </mxGeometry>
        </mxCell>
        <mxCell id="2s2EVg3I9l29PKekEkhl-36" value="" style="endArrow=none;html=1;rounded=0;" edge="1" parent="1" source="2s2EVg3I9l29PKekEkhl-33">
          <mxGeometry width="50" height="50" relative="1" as="geometry">
            <mxPoint x="583.32" y="510" as="sourcePoint" />
            <mxPoint x="609.9964227757995" y="480.6559349466204" as="targetPoint" />
          </mxGeometry>
        </mxCell>
        <mxCell id="2s2EVg3I9l29PKekEkhl-37" value="time" style="ellipse;whiteSpace=wrap;html=1;fillColor=#FF9999;" vertex="1" parent="1">
          <mxGeometry x="630" y="140" width="90" height="60" as="geometry" />
        </mxCell>
        <mxCell id="2s2EVg3I9l29PKekEkhl-38" value="" style="endArrow=none;html=1;rounded=0;" edge="1" parent="1">
          <mxGeometry width="50" height="50" relative="1" as="geometry">
            <mxPoint x="600" y="245" as="sourcePoint" />
            <mxPoint x="650" y="195" as="targetPoint" />
          </mxGeometry>
        </mxCell>
        <mxCell id="2s2EVg3I9l29PKekEkhl-39" value="&lt;u&gt;Employee_ID&lt;/u&gt;" style="ellipse;whiteSpace=wrap;html=1;fillColor=#FF9999;" vertex="1" parent="1">
          <mxGeometry x="650" y="440" width="90" height="60" as="geometry" />
        </mxCell>
        <mxCell id="2s2EVg3I9l29PKekEkhl-40" value="phone_number" style="ellipse;whiteSpace=wrap;html=1;fillColor=#FF9999;" vertex="1" parent="1">
          <mxGeometry x="740" y="390" width="90" height="60" as="geometry" />
        </mxCell>
        <mxCell id="2s2EVg3I9l29PKekEkhl-41" value="&lt;u&gt;Serial_ID&lt;/u&gt;" style="ellipse;whiteSpace=wrap;html=1;fillColor=#FF9999;" vertex="1" parent="1">
          <mxGeometry x="90" y="30" width="120" height="80" as="geometry" />
        </mxCell>
      </root>
    </mxGraphModel>
  </diagram>
</mxfile>
